<svg xmlns="http://www.w3.org/2000/svg" width="150" height="143.1">
  <path
    d="M49.3 33.2a16234 16234 0 01-15.5 34.4l-9.2 20.6-12.8 28.4L0 143h21.6l12.6-28 12.5-27.9H73c21 0 26.3-.1 26.1-.3l-4.2-9-4-9H73c-14.3 0-18 0-17.8-.2a3053 3053 0 0120-44.2l30 66.8 3.8 8.7 1.6 3.4 1.2 2.8c.2.1 2.8-2.5 4.2-4.2a49.7 49.7 0 006.7-10.3 22.4 22.4 0 002-4.9l-17-38.2L88.1 5.4 85.8 0H75L64.2 0zm6.3-28.6a77.4 77.4 0 00-18 7.2 73.7 73.7 0 00-24 22.2 66.8 66.8 0 00-1.5 72.8s.4-.5.7-1.3l1.6-3.7 2.9-6.3 2.9-6.3a31 31 0 001-2.6L21 85a45.1 45.1 0 01-1.7-13.4 50.1 50.1 0 0118-38.6A62.9 62.9 0 0147 26a11.2 11.2 0 002-1.3l.5-1.2 3.2-7L56 9.1c2-4.3 2.3-5.3 2-5.3l-2.5.7zM93.4 8a1225 1225 0 013.1 7l2.9 6.4L101 25l1.5.9L106 28a53.9 53.9 0 0119.6 21.5l.9 1.8h9c5 0 9 0 9-.2 0-.4-1.8-5.3-2.8-7.5a71.8 71.8 0 00-40.4-36.9c-2.9-1-8.9-2.8-9.6-2.8-.2 0 .1 1 1.6 4.2z"/>
  <path
    d="M120.8 68.8c0 .2.5 1.6 1.3 3.2l3.9 8.8 2.6 5.8-1 2.8a53.5 53.5 0 01-26.6 28.5 56.2 56.2 0 01-24.4 6 56.2 56.2 0 01-18.7-2.4 60.4 60.4 0 01-16-7.6l-2.5-1.5c-.1.1-6 13-6.8 15.1l-.3.6 1.8 1.1a74.5 74.5 0 0024.2 10 75.6 75.6 0 0049.7-5.6 71.5 71.5 0 0027-22.5 68.1 68.1 0 0012.5-31.3l.4-6.7v-4.5h-13.6c-11 0-13.5 0-13.5.2zm14.7 47.5a75.8 75.8 0 01-11.7 11.5l-1.7 1.5.3.5 3.1 7 2.8 6.3H150l-3.8-8.5a1446.6 1446.6 0 01-4.1-9.1l-.3-.7-1-2.2a227.7 227.7 0 01-3.5-7.8l-.2-.5z"/>
</svg>
